<svg xmlns="http://www.w3.org/2000/svg" viewBox="0 0 250 350" width="250" height="350">
<rect x="2" y="2" width="246" height="346" rx="14" ry="14" fill="#0b3a3f" stroke="#d0d0d0" stroke-width="1.5"/>
<rect x="10" y="10" width="230" height="330" rx="8" ry="8" fill="none" stroke="#1d6b73" stroke-width="2"/>
<path d="M12 4 L20 12 L12 20 L4 12 Z" fill="#0e4a52" opacity="0.65"/>
<path d="M36 4 L44 12 L36 20 L28 12 Z" fill="#0e4a52" opacity="0.65"/>
<path d="M60 4 L68 12 L60 20 L52 12 Z" fill="#0e4a52" opacity="0.65"/>
<path d="M84 4 L92 12 L84 20 L76 12 Z" fill="#0e4a52" opacity="0.65"/>
<path d="M108 4 L116 12 L108 20 L100 12 Z" fill="#0e4a52" opacity="0.65"/>
<path d="M132 4 L140 12 L132 20 L124 12 Z" fill="#0e4a52" opacity="0.65"/>
<path d="M156 4 L164 12 L156 20 L148 12 Z" fill="#0e4a52" opacity="0.65"/>
<path d="M180 4 L188 12 L180 20 L172 12 Z" fill="#0e4a52" opacity="0.65"/>
<path d="M204 4 L212 12 L204 20 L196 12 Z" fill="#0e4a52" opacity="0.65"/>
<path d="M228 4 L236 12 L228 20 L220 12 Z" fill="#0e4a52" opacity="0.65"/>
<path d="M12 28 L20 36 L12 44 L4 36 Z" fill="#0e4a52" opacity="0.65"/>
<path d="M36 28 L44 36 L36 44 L28 36 Z" fill="#0e4a52" opacity="0.65"/>
<path d="M60 28 L68 36 L60 44 L52 36 Z" fill="#0e4a52" opacity="0.65"/>
<path d="M84 28 L92 36 L84 44 L76 36 Z" fill="#0e4a52" opacity="0.65"/>
<path d="M108 28 L116 36 L108 44 L100 36 Z" fill="#0e4a52" opacity="0.65"/>
<path d="M132 28 L140 36 L132 44 L124 36 Z" fill="#0e4a52" opacity="0.65"/>
<path d="M156 28 L164 36 L156 44 L148 36 Z" fill="#0e4a52" opacity="0.65"/>
<path d="M180 28 L188 36 L180 44 L172 36 Z" fill="#0e4a52" opacity="0.65"/>
<path d="M204 28 L212 36 L204 44 L196 36 Z" fill="#0e4a52" opacity="0.65"/>
<path d="M228 28 L236 36 L228 44 L220 36 Z" fill="#0e4a52" opacity="0.65"/>
<path d="M12 52 L20 60 L12 68 L4 60 Z" fill="#0e4a52" opacity="0.65"/>
<path d="M36 52 L44 60 L36 68 L28 60 Z" fill="#0e4a52" opacity="0.65"/>
<path d="M60 52 L68 60 L60 68 L52 60 Z" fill="#0e4a52" opacity="0.65"/>
<path d="M84 52 L92 60 L84 68 L76 60 Z" fill="#0e4a52" opacity="0.65"/>
<path d="M108 52 L116 60 L108 68 L100 60 Z" fill="#0e4a52" opacity="0.65"/>
<path d="M132 52 L140 60 L132 68 L124 60 Z" fill="#0e4a52" opacity="0.65"/>
<path d="M156 52 L164 60 L156 68 L148 60 Z" fill="#0e4a52" opacity="0.65"/>
<path d="M180 52 L188 60 L180 68 L172 60 Z" fill="#0e4a52" opacity="0.65"/>
<path d="M204 52 L212 60 L204 68 L196 60 Z" fill="#0e4a52" opacity="0.65"/>
<path d="M228 52 L236 60 L228 68 L220 60 Z" fill="#0e4a52" opacity="0.65"/>
<path d="M12 76 L20 84 L12 92 L4 84 Z" fill="#0e4a52" opacity="0.65"/>
<path d="M36 76 L44 84 L36 92 L28 84 Z" fill="#0e4a52" opacity="0.65"/>
<path d="M60 76 L68 84 L60 92 L52 84 Z" fill="#0e4a52" opacity="0.65"/>
<path d="M84 76 L92 84 L84 92 L76 84 Z" fill="#0e4a52" opacity="0.65"/>
<path d="M108 76 L116 84 L108 92 L100 84 Z" fill="#0e4a52" opacity="0.65"/>
<path d="M132 76 L140 84 L132 92 L124 84 Z" fill="#0e4a52" opacity="0.65"/>
<path d="M156 76 L164 84 L156 92 L148 84 Z" fill="#0e4a52" opacity="0.65"/>
<path d="M180 76 L188 84 L180 92 L172 84 Z" fill="#0e4a52" opacity="0.65"/>
<path d="M204 76 L212 84 L204 92 L196 84 Z" fill="#0e4a52" opacity="0.65"/>
<path d="M228 76 L236 84 L228 92 L220 84 Z" fill="#0e4a52" opacity="0.65"/>
<path d="M12 100 L20 108 L12 116 L4 108 Z" fill="#0e4a52" opacity="0.65"/>
<path d="M36 100 L44 108 L36 116 L28 108 Z" fill="#0e4a52" opacity="0.65"/>
<path d="M60 100 L68 108 L60 116 L52 108 Z" fill="#0e4a52" opacity="0.65"/>
<path d="M84 100 L92 108 L84 116 L76 108 Z" fill="#0e4a52" opacity="0.65"/>
<path d="M108 100 L116 108 L108 116 L100 108 Z" fill="#0e4a52" opacity="0.65"/>
<path d="M132 100 L140 108 L132 116 L124 108 Z" fill="#0e4a52" opacity="0.65"/>
<path d="M156 100 L164 108 L156 116 L148 108 Z" fill="#0e4a52" opacity="0.65"/>
<path d="M180 100 L188 108 L180 116 L172 108 Z" fill="#0e4a52" opacity="0.65"/>
<path d="M204 100 L212 108 L204 116 L196 108 Z" fill="#0e4a52" opacity="0.65"/>
<path d="M228 100 L236 108 L228 116 L220 108 Z" fill="#0e4a52" opacity="0.65"/>
<path d="M12 124 L20 132 L12 140 L4 132 Z" fill="#0e4a52" opacity="0.65"/>
<path d="M36 124 L44 132 L36 140 L28 132 Z" fill="#0e4a52" opacity="0.65"/>
<path d="M60 124 L68 132 L60 140 L52 132 Z" fill="#0e4a52" opacity="0.65"/>
<path d="M84 124 L92 132 L84 140 L76 132 Z" fill="#0e4a52" opacity="0.65"/>
<path d="M108 124 L116 132 L108 140 L100 132 Z" fill="#0e4a52" opacity="0.65"/>
<path d="M132 124 L140 132 L132 140 L124 132 Z" fill="#0e4a52" opacity="0.65"/>
<path d="M156 124 L164 132 L156 140 L148 132 Z" fill="#0e4a52" opacity="0.65"/>
<path d="M180 124 L188 132 L180 140 L172 132 Z" fill="#0e4a52" opacity="0.65"/>
<path d="M204 124 L212 132 L204 140 L196 132 Z" fill="#0e4a52" opacity="0.65"/>
<path d="M228 124 L236 132 L228 140 L220 132 Z" fill="#0e4a52" opacity="0.65"/>
<path d="M12 148 L20 156 L12 164 L4 156 Z" fill="#0e4a52" opacity="0.65"/>
<path d="M36 148 L44 156 L36 164 L28 156 Z" fill="#0e4a52" opacity="0.65"/>
<path d="M60 148 L68 156 L60 164 L52 156 Z" fill="#0e4a52" opacity="0.65"/>
<path d="M84 148 L92 156 L84 164 L76 156 Z" fill="#0e4a52" opacity="0.65"/>
<path d="M108 148 L116 156 L108 164 L100 156 Z" fill="#0e4a52" opacity="0.65"/>
<path d="M132 148 L140 156 L132 164 L124 156 Z" fill="#0e4a52" opacity="0.65"/>
<path d="M156 148 L164 156 L156 164 L148 156 Z" fill="#0e4a52" opacity="0.65"/>
<path d="M180 148 L188 156 L180 164 L172 156 Z" fill="#0e4a52" opacity="0.65"/>
<path d="M204 148 L212 156 L204 164 L196 156 Z" fill="#0e4a52" opacity="0.65"/>
<path d="M228 148 L236 156 L228 164 L220 156 Z" fill="#0e4a52" opacity="0.65"/>
<path d="M12 172 L20 180 L12 188 L4 180 Z" fill="#0e4a52" opacity="0.65"/>
<path d="M36 172 L44 180 L36 188 L28 180 Z" fill="#0e4a52" opacity="0.65"/>
<path d="M60 172 L68 180 L60 188 L52 180 Z" fill="#0e4a52" opacity="0.65"/>
<path d="M84 172 L92 180 L84 188 L76 180 Z" fill="#0e4a52" opacity="0.65"/>
<path d="M108 172 L116 180 L108 188 L100 180 Z" fill="#0e4a52" opacity="0.65"/>
<path d="M132 172 L140 180 L132 188 L124 180 Z" fill="#0e4a52" opacity="0.65"/>
<path d="M156 172 L164 180 L156 188 L148 180 Z" fill="#0e4a52" opacity="0.65"/>
<path d="M180 172 L188 180 L180 188 L172 180 Z" fill="#0e4a52" opacity="0.65"/>
<path d="M204 172 L212 180 L204 188 L196 180 Z" fill="#0e4a52" opacity="0.65"/>
<path d="M228 172 L236 180 L228 188 L220 180 Z" fill="#0e4a52" opacity="0.65"/>
<path d="M12 196 L20 204 L12 212 L4 204 Z" fill="#0e4a52" opacity="0.65"/>
<path d="M36 196 L44 204 L36 212 L28 204 Z" fill="#0e4a52" opacity="0.65"/>
<path d="M60 196 L68 204 L60 212 L52 204 Z" fill="#0e4a52" opacity="0.65"/>
<path d="M84 196 L92 204 L84 212 L76 204 Z" fill="#0e4a52" opacity="0.65"/>
<path d="M108 196 L116 204 L108 212 L100 204 Z" fill="#0e4a52" opacity="0.65"/>
<path d="M132 196 L140 204 L132 212 L124 204 Z" fill="#0e4a52" opacity="0.65"/>
<path d="M156 196 L164 204 L156 212 L148 204 Z" fill="#0e4a52" opacity="0.65"/>
<path d="M180 196 L188 204 L180 212 L172 204 Z" fill="#0e4a52" opacity="0.65"/>
<path d="M204 196 L212 204 L204 212 L196 204 Z" fill="#0e4a52" opacity="0.65"/>
<path d="M228 196 L236 204 L228 212 L220 204 Z" fill="#0e4a52" opacity="0.65"/>
<path d="M12 220 L20 228 L12 236 L4 228 Z" fill="#0e4a52" opacity="0.65"/>
<path d="M36 220 L44 228 L36 236 L28 228 Z" fill="#0e4a52" opacity="0.65"/>
<path d="M60 220 L68 228 L60 236 L52 228 Z" fill="#0e4a52" opacity="0.65"/>
<path d="M84 220 L92 228 L84 236 L76 228 Z" fill="#0e4a52" opacity="0.65"/>
<path d="M108 220 L116 228 L108 236 L100 228 Z" fill="#0e4a52" opacity="0.65"/>
<path d="M132 220 L140 228 L132 236 L124 228 Z" fill="#0e4a52" opacity="0.65"/>
<path d="M156 220 L164 228 L156 236 L148 228 Z" fill="#0e4a52" opacity="0.65"/>
<path d="M180 220 L188 228 L180 236 L172 228 Z" fill="#0e4a52" opacity="0.65"/>
<path d="M204 220 L212 228 L204 236 L196 228 Z" fill="#0e4a52" opacity="0.65"/>
<path d="M228 220 L236 228 L228 236 L220 228 Z" fill="#0e4a52" opacity="0.65"/>
<path d="M12 244 L20 252 L12 260 L4 252 Z" fill="#0e4a52" opacity="0.65"/>
<path d="M36 244 L44 252 L36 260 L28 252 Z" fill="#0e4a52" opacity="0.65"/>
<path d="M60 244 L68 252 L60 260 L52 252 Z" fill="#0e4a52" opacity="0.65"/>
<path d="M84 244 L92 252 L84 260 L76 252 Z" fill="#0e4a52" opacity="0.65"/>
<path d="M108 244 L116 252 L108 260 L100 252 Z" fill="#0e4a52" opacity="0.65"/>
<path d="M132 244 L140 252 L132 260 L124 252 Z" fill="#0e4a52" opacity="0.65"/>
<path d="M156 244 L164 252 L156 260 L148 252 Z" fill="#0e4a52" opacity="0.65"/>
<path d="M180 244 L188 252 L180 260 L172 252 Z" fill="#0e4a52" opacity="0.65"/>
<path d="M204 244 L212 252 L204 260 L196 252 Z" fill="#0e4a52" opacity="0.65"/>
<path d="M228 244 L236 252 L228 260 L220 252 Z" fill="#0e4a52" opacity="0.65"/>
<path d="M12 268 L20 276 L12 284 L4 276 Z" fill="#0e4a52" opacity="0.65"/>
<path d="M36 268 L44 276 L36 284 L28 276 Z" fill="#0e4a52" opacity="0.65"/>
<path d="M60 268 L68 276 L60 284 L52 276 Z" fill="#0e4a52" opacity="0.65"/>
<path d="M84 268 L92 276 L84 284 L76 276 Z" fill="#0e4a52" opacity="0.65"/>
<path d="M108 268 L116 276 L108 284 L100 276 Z" fill="#0e4a52" opacity="0.65"/>
<path d="M132 268 L140 276 L132 284 L124 276 Z" fill="#0e4a52" opacity="0.65"/>
<path d="M156 268 L164 276 L156 284 L148 276 Z" fill="#0e4a52" opacity="0.65"/>
<path d="M180 268 L188 276 L180 284 L172 276 Z" fill="#0e4a52" opacity="0.65"/>
<path d="M204 268 L212 276 L204 284 L196 276 Z" fill="#0e4a52" opacity="0.65"/>
<path d="M228 268 L236 276 L228 284 L220 276 Z" fill="#0e4a52" opacity="0.65"/>
<path d="M12 292 L20 300 L12 308 L4 300 Z" fill="#0e4a52" opacity="0.65"/>
<path d="M36 292 L44 300 L36 308 L28 300 Z" fill="#0e4a52" opacity="0.65"/>
<path d="M60 292 L68 300 L60 308 L52 300 Z" fill="#0e4a52" opacity="0.65"/>
<path d="M84 292 L92 300 L84 308 L76 300 Z" fill="#0e4a52" opacity="0.65"/>
<path d="M108 292 L116 300 L108 308 L100 300 Z" fill="#0e4a52" opacity="0.65"/>
<path d="M132 292 L140 300 L132 308 L124 300 Z" fill="#0e4a52" opacity="0.65"/>
<path d="M156 292 L164 300 L156 308 L148 300 Z" fill="#0e4a52" opacity="0.65"/>
<path d="M180 292 L188 300 L180 308 L172 300 Z" fill="#0e4a52" opacity="0.65"/>
<path d="M204 292 L212 300 L204 308 L196 300 Z" fill="#0e4a52" opacity="0.65"/>
<path d="M228 292 L236 300 L228 308 L220 300 Z" fill="#0e4a52" opacity="0.65"/>
<path d="M12 316 L20 324 L12 332 L4 324 Z" fill="#0e4a52" opacity="0.65"/>
<path d="M36 316 L44 324 L36 332 L28 324 Z" fill="#0e4a52" opacity="0.65"/>
<path d="M60 316 L68 324 L60 332 L52 324 Z" fill="#0e4a52" opacity="0.65"/>
<path d="M84 316 L92 324 L84 332 L76 324 Z" fill="#0e4a52" opacity="0.65"/>
<path d="M108 316 L116 324 L108 332 L100 324 Z" fill="#0e4a52" opacity="0.65"/>
<path d="M132 316 L140 324 L132 332 L124 324 Z" fill="#0e4a52" opacity="0.65"/>
<path d="M156 316 L164 324 L156 332 L148 324 Z" fill="#0e4a52" opacity="0.65"/>
<path d="M180 316 L188 324 L180 332 L172 324 Z" fill="#0e4a52" opacity="0.65"/>
<path d="M204 316 L212 324 L204 332 L196 324 Z" fill="#0e4a52" opacity="0.65"/>
<path d="M228 316 L236 324 L228 332 L220 324 Z" fill="#0e4a52" opacity="0.65"/>
<rect x="10" y="10" width="230" height="330" rx="8" ry="8" fill="none" stroke="#1d6b73" stroke-width="2"/>
</svg>