<svg xmlns="http://www.w3.org/2000/svg" viewBox="0 0 250 350" width="250" height="350">
<rect x="2" y="2" width="246" height="346" rx="14" ry="14" fill="#ffffff" stroke="#d0d0d0" stroke-width="1.5"/>
<text x="125" y="163" fill="#2d8c4e" font-family="Georgia, 'Times New Roman', serif" font-size="120" font-weight="700" text-anchor="middle" dominant-baseline="middle">K</text>
<g transform="translate(95 185) scale(0.6)"><circle fill="#2d8c4e" cx="50" cy="26" r="20"/><circle fill="#2d8c4e" cx="28" cy="58" r="20"/><circle fill="#2d8c4e" cx="72" cy="58" r="20"/><path fill="#2d8c4e" d="M40 92 L 60 92 L 56 58 L 44 58 Z"/></g>

      <g>
        <text x="14" y="30" fill="#2d8c4e" font-family="Georgia, 'Times New Roman', serif" font-size="30" font-weight="700" text-anchor="middle">K</text>
        <g transform="translate(4 36) scale(0.2)"><circle fill="#2d8c4e" cx="50" cy="26" r="20"/><circle fill="#2d8c4e" cx="28" cy="58" r="20"/><circle fill="#2d8c4e" cx="72" cy="58" r="20"/><path fill="#2d8c4e" d="M40 92 L 60 92 L 56 58 L 44 58 Z"/></g>
      </g>

    <g transform="translate(250 350) rotate(180)">
      <text x="14" y="30" fill="#2d8c4e" font-family="Georgia, 'Times New Roman', serif" font-size="30" font-weight="700" text-anchor="middle">K</text>
      <g transform="translate(4 36) scale(0.2)"><circle fill="#2d8c4e" cx="50" cy="26" r="20"/><circle fill="#2d8c4e" cx="28" cy="58" r="20"/><circle fill="#2d8c4e" cx="72" cy="58" r="20"/><path fill="#2d8c4e" d="M40 92 L 60 92 L 56 58 L 44 58 Z"/></g>
    </g>
</svg>