<svg xmlns="http://www.w3.org/2000/svg" viewBox="0 0 250 350" width="250" height="350">
<rect x="2" y="2" width="246" height="346" rx="14" ry="14" fill="#ffffff" stroke="#d0d0d0" stroke-width="1.5"/>
<text x="125" y="163" fill="#1a1a1a" font-family="Georgia, 'Times New Roman', serif" font-size="120" font-weight="700" text-anchor="middle" dominant-baseline="middle">J</text>
<g transform="translate(95 185) scale(0.6)"><path fill="#1a1a1a" d="M50 6 C 50 36 96 36 96 64 C 96 82 76 90 56 72 L 62 92 L 38 92 L 44 72 C 24 90 4 82 4 64 C 4 36 50 36 50 6 Z"/></g>

      <g>
        <text x="14" y="30" fill="#1a1a1a" font-family="Georgia, 'Times New Roman', serif" font-size="30" font-weight="700" text-anchor="middle">J</text>
        <g transform="translate(4 36) scale(0.2)"><path fill="#1a1a1a" d="M50 6 C 50 36 96 36 96 64 C 96 82 76 90 56 72 L 62 92 L 38 92 L 44 72 C 24 90 4 82 4 64 C 4 36 50 36 50 6 Z"/></g>
      </g>

    <g transform="translate(250 350) rotate(180)">
      <text x="14" y="30" fill="#1a1a1a" font-family="Georgia, 'Times New Roman', serif" font-size="30" font-weight="700" text-anchor="middle">J</text>
      <g transform="translate(4 36) scale(0.2)"><path fill="#1a1a1a" d="M50 6 C 50 36 96 36 96 64 C 96 82 76 90 56 72 L 62 92 L 38 92 L 44 72 C 24 90 4 82 4 64 C 4 36 50 36 50 6 Z"/></g>
    </g>
</svg>