<svg xmlns="http://www.w3.org/2000/svg" viewBox="0 0 250 350" width="250" height="350">
<rect x="2" y="2" width="246" height="346" rx="14" ry="14" fill="#ffffff" stroke="#d0d0d0" stroke-width="1.5"/>
<g transform="translate(65.84 65.5) scale(0.3)"><path fill="#1a1a1a" d="M50 6 C 50 36 96 36 96 64 C 96 82 76 90 56 72 L 62 92 L 38 92 L 44 72 C 24 90 4 82 4 64 C 4 36 50 36 50 6 Z"/></g><g transform="translate(154.16 65.5) scale(0.3)"><path fill="#1a1a1a" d="M50 6 C 50 36 96 36 96 64 C 96 82 76 90 56 72 L 62 92 L 38 92 L 44 72 C 24 90 4 82 4 64 C 4 36 50 36 50 6 Z"/></g><g transform="translate(110 113.80000000000001) scale(0.3)"><path fill="#1a1a1a" d="M50 6 C 50 36 96 36 96 64 C 96 82 76 90 56 72 L 62 92 L 38 92 L 44 72 C 24 90 4 82 4 64 C 4 36 50 36 50 6 Z"/></g><g transform="translate(65.84 160) scale(0.3)"><path fill="#1a1a1a" d="M50 6 C 50 36 96 36 96 64 C 96 82 76 90 56 72 L 62 92 L 38 92 L 44 72 C 24 90 4 82 4 64 C 4 36 50 36 50 6 Z"/></g><g transform="translate(154.16 160) scale(0.3)"><path fill="#1a1a1a" d="M50 6 C 50 36 96 36 96 64 C 96 82 76 90 56 72 L 62 92 L 38 92 L 44 72 C 24 90 4 82 4 64 C 4 36 50 36 50 6 Z"/></g><g transform="translate(140 236.2) rotate(180) scale(0.3)"><path fill="#1a1a1a" d="M50 6 C 50 36 96 36 96 64 C 96 82 76 90 56 72 L 62 92 L 38 92 L 44 72 C 24 90 4 82 4 64 C 4 36 50 36 50 6 Z"/></g><g transform="translate(95.84 284.5) rotate(180) scale(0.3)"><path fill="#1a1a1a" d="M50 6 C 50 36 96 36 96 64 C 96 82 76 90 56 72 L 62 92 L 38 92 L 44 72 C 24 90 4 82 4 64 C 4 36 50 36 50 6 Z"/></g><g transform="translate(184.16 284.5) rotate(180) scale(0.3)"><path fill="#1a1a1a" d="M50 6 C 50 36 96 36 96 64 C 96 82 76 90 56 72 L 62 92 L 38 92 L 44 72 C 24 90 4 82 4 64 C 4 36 50 36 50 6 Z"/></g>

      <g>
        <text x="14" y="30" fill="#1a1a1a" font-family="Georgia, 'Times New Roman', serif" font-size="30" font-weight="700" text-anchor="middle">8</text>
        <g transform="translate(4 36) scale(0.2)"><path fill="#1a1a1a" d="M50 6 C 50 36 96 36 96 64 C 96 82 76 90 56 72 L 62 92 L 38 92 L 44 72 C 24 90 4 82 4 64 C 4 36 50 36 50 6 Z"/></g>
      </g>

    <g transform="translate(250 350) rotate(180)">
      <text x="14" y="30" fill="#1a1a1a" font-family="Georgia, 'Times New Roman', serif" font-size="30" font-weight="700" text-anchor="middle">8</text>
      <g transform="translate(4 36) scale(0.2)"><path fill="#1a1a1a" d="M50 6 C 50 36 96 36 96 64 C 96 82 76 90 56 72 L 62 92 L 38 92 L 44 72 C 24 90 4 82 4 64 C 4 36 50 36 50 6 Z"/></g>
    </g>
</svg>