<svg xmlns="http://www.w3.org/2000/svg" viewBox="0 0 250 350" width="250" height="350">
<rect x="2" y="2" width="246" height="346" rx="14" ry="14" fill="#ffffff" stroke="#d0d0d0" stroke-width="1.5"/>
<g transform="translate(65.84 65.5) scale(0.3)"><path fill="#d4253c" d="M50 88 C 50 60 4 60 4 30 C 4 12 26 4 50 26 C 74 4 96 12 96 30 C 96 60 50 60 50 88 Z"/></g><g transform="translate(154.16 65.5) scale(0.3)"><path fill="#d4253c" d="M50 88 C 50 60 4 60 4 30 C 4 12 26 4 50 26 C 74 4 96 12 96 30 C 96 60 50 60 50 88 Z"/></g><g transform="translate(110 113.80000000000001) scale(0.3)"><path fill="#d4253c" d="M50 88 C 50 60 4 60 4 30 C 4 12 26 4 50 26 C 74 4 96 12 96 30 C 96 60 50 60 50 88 Z"/></g><g transform="translate(65.84 160) scale(0.3)"><path fill="#d4253c" d="M50 88 C 50 60 4 60 4 30 C 4 12 26 4 50 26 C 74 4 96 12 96 30 C 96 60 50 60 50 88 Z"/></g><g transform="translate(154.16 160) scale(0.3)"><path fill="#d4253c" d="M50 88 C 50 60 4 60 4 30 C 4 12 26 4 50 26 C 74 4 96 12 96 30 C 96 60 50 60 50 88 Z"/></g><g transform="translate(140 236.2) rotate(180) scale(0.3)"><path fill="#d4253c" d="M50 88 C 50 60 4 60 4 30 C 4 12 26 4 50 26 C 74 4 96 12 96 30 C 96 60 50 60 50 88 Z"/></g><g transform="translate(95.84 284.5) rotate(180) scale(0.3)"><path fill="#d4253c" d="M50 88 C 50 60 4 60 4 30 C 4 12 26 4 50 26 C 74 4 96 12 96 30 C 96 60 50 60 50 88 Z"/></g><g transform="translate(184.16 284.5) rotate(180) scale(0.3)"><path fill="#d4253c" d="M50 88 C 50 60 4 60 4 30 C 4 12 26 4 50 26 C 74 4 96 12 96 30 C 96 60 50 60 50 88 Z"/></g>

      <g>
        <text x="14" y="30" fill="#d4253c" font-family="Georgia, 'Times New Roman', serif" font-size="30" font-weight="700" text-anchor="middle">8</text>
        <g transform="translate(4 36) scale(0.2)"><path fill="#d4253c" d="M50 88 C 50 60 4 60 4 30 C 4 12 26 4 50 26 C 74 4 96 12 96 30 C 96 60 50 60 50 88 Z"/></g>
      </g>

    <g transform="translate(250 350) rotate(180)">
      <text x="14" y="30" fill="#d4253c" font-family="Georgia, 'Times New Roman', serif" font-size="30" font-weight="700" text-anchor="middle">8</text>
      <g transform="translate(4 36) scale(0.2)"><path fill="#d4253c" d="M50 88 C 50 60 4 60 4 30 C 4 12 26 4 50 26 C 74 4 96 12 96 30 C 96 60 50 60 50 88 Z"/></g>
    </g>
</svg>