<svg xmlns="http://www.w3.org/2000/svg" viewBox="0 0 250 350" width="250" height="350">
<rect x="2" y="2" width="246" height="346" rx="14" ry="14" fill="#ffffff" stroke="#d0d0d0" stroke-width="1.5"/>

    <rect x="50" y="60" width="150" height="230" rx="10" ry="10"
          fill="none" stroke="#2f6fe0" stroke-width="2" opacity="0.6"/>
    <rect x="58" y="68" width="134" height="214" rx="6" ry="6"
          fill="none" stroke="#2f6fe0" stroke-width="1" opacity="0.4"/>

      <g transform="translate(85 110)">
        <path d="M0 30 L6 6 L20 22 L30 0 L40 22 L54 6 L60 30 Z" fill="#2f6fe0" stroke="#2f6fe0" stroke-width="1.5"/>
        <circle cx="6" cy="6" r="4" fill="#2f6fe0"/>
        <circle cx="30" cy="0" r="5" fill="#2f6fe0"/>
        <circle cx="54" cy="6" r="4" fill="#2f6fe0"/>
        <rect x="0" y="30" width="60" height="4" fill="#2f6fe0"/>
      </g>

    <text x="125" y="201" fill="#2f6fe0" font-family="Georgia, 'Times New Roman', serif"
          font-size="100" font-weight="700" text-anchor="middle" dominant-baseline="middle">Q</text>
<g transform="translate(47 179) scale(0.36)"><path fill="#2f6fe0" d="M50 4 L 92 50 L 50 96 L 8 50 Z"/></g>
<g transform="translate(175 179) scale(0.36)"><path fill="#2f6fe0" d="M50 4 L 92 50 L 50 96 L 8 50 Z"/></g>

    <g transform="translate(250 350) rotate(180)">
      <g transform="translate(85 110)">
        <path d="M0 30 L6 6 L20 22 L30 0 L40 22 L54 6 L60 30 Z" fill="#2f6fe0" stroke="#2f6fe0" stroke-width="1.5"/>
        <circle cx="6" cy="6" r="4" fill="#2f6fe0"/>
        <circle cx="30" cy="0" r="5" fill="#2f6fe0"/>
        <circle cx="54" cy="6" r="4" fill="#2f6fe0"/>
        <rect x="0" y="30" width="60" height="4" fill="#2f6fe0"/>
      </g>
    </g>

      <g>
        <text x="14" y="30" fill="#2f6fe0" font-family="Georgia, 'Times New Roman', serif" font-size="30" font-weight="700" text-anchor="middle">Q</text>
        <g transform="translate(4 36) scale(0.2)"><path fill="#2f6fe0" d="M50 4 L 92 50 L 50 96 L 8 50 Z"/></g>
      </g>

    <g transform="translate(250 350) rotate(180)">
      <text x="14" y="30" fill="#2f6fe0" font-family="Georgia, 'Times New Roman', serif" font-size="30" font-weight="700" text-anchor="middle">Q</text>
      <g transform="translate(4 36) scale(0.2)"><path fill="#2f6fe0" d="M50 4 L 92 50 L 50 96 L 8 50 Z"/></g>
    </g>
</svg>